<svg width="85" height="64" viewBox="0 0 85 64" fill="none" xmlns="http://www.w3.org/2000/svg">
<path d="M21.3157 34.1827C28.1326 34.1827 31.3376 29.6729 31.3376 24.9067C31.3376 20.4994 28.5396 17.117 24.8768 16.5533C28.1835 15.8358 30.6763 12.9659 30.6763 8.71224C30.6763 4.71486 27.6239 0 20.6035 0H0V34.1827H21.3157ZM18.2124 12.6071H10.2763V8.60974H18.2124C19.2808 8.60974 20.2473 9.37847 20.2473 10.5572C20.2473 11.7871 19.2808 12.6071 18.2124 12.6071ZM18.5177 25.573H10.2763V21.2169H18.5177C19.993 21.2169 20.9087 22.1906 20.9087 23.4205C20.9087 24.7018 19.993 25.573 18.5177 25.573Z" fill="black"/>
<path d="M45.7481 34.1827V0H35.4718V34.1827H45.7481Z" fill="black"/>
<path d="M66.4314 34.1827C77.0638 34.1827 85 27.9817 85 17.0657C85 6.14981 77.0638 0 66.3806 0H51.2205V34.1827H66.4314ZM66.3806 25.163H61.4968V9.01973H66.4314C71.9257 9.01973 74.5711 12.4534 74.5711 17.0657C74.5711 21.3706 71.5187 25.163 66.3806 25.163Z" fill="black"/>
<path d="M7.24029 64V55.4154H17.4047V49.3476H7.24029V47.0722H17.6442V41.0044H0.327143V64H7.24029Z" fill="black"/>
<path d="M37.8976 64V57.9322H27.4936V55.4154H37.658V49.3476H27.4936V47.0722H37.8976V41.0044H20.5805V64H37.8976Z" fill="black"/>
<path d="M58.2846 64V57.9322H47.8807V55.4154H58.045V49.3476H47.8807V47.0722H58.2846V41.0044H40.9675V64H58.2846Z" fill="black"/>
<path d="M71.5874 64C78.7401 64 84.0789 59.8284 84.0789 52.4849C84.0789 45.1415 78.7401 41.0044 71.5531 41.0044H61.3546V64H71.5874ZM71.5531 57.9322H68.2677V47.0722H71.5874C75.2835 47.0722 77.0631 49.3821 77.0631 52.4849C77.0631 55.3809 75.0097 57.9322 71.5531 57.9322Z" fill="black"/>
</svg>
