<svg width="18" height="18" viewBox="0 0 18 18" fill="none" xmlns="http://www.w3.org/2000/svg">
<path d="M7.33366 9.83342H1.50033C1.27931 9.83342 1.06735 9.92121 0.91107 10.0775C0.75479 10.2338 0.666992 10.4457 0.666992 10.6667V16.5001C0.666992 16.7211 0.75479 16.9331 0.91107 17.0893C1.06735 17.2456 1.27931 17.3334 1.50033 17.3334H7.33366C7.55467 17.3334 7.76663 17.2456 7.92291 17.0893C8.0792 16.9331 8.16699 16.7211 8.16699 16.5001V10.6667C8.16699 10.4457 8.0792 10.2338 7.92291 10.0775C7.76663 9.92121 7.55467 9.83342 7.33366 9.83342ZM6.50033 15.6667H2.33366V11.5001H6.50033V15.6667ZM16.5003 0.666748H10.667C10.446 0.666748 10.234 0.754545 10.0777 0.910826C9.92146 1.06711 9.83366 1.27907 9.83366 1.50008V7.33342C9.83366 7.55443 9.92146 7.76639 10.0777 7.92267C10.234 8.07895 10.446 8.16675 10.667 8.16675H16.5003C16.7213 8.16675 16.9333 8.07895 17.0896 7.92267C17.2459 7.76639 17.3337 7.55443 17.3337 7.33342V1.50008C17.3337 1.27907 17.2459 1.06711 17.0896 0.910826C16.9333 0.754545 16.7213 0.666748 16.5003 0.666748ZM15.667 6.50008H11.5003V2.33341H15.667V6.50008ZM16.5003 9.83342H10.667C10.446 9.83342 10.234 9.92121 10.0777 10.0775C9.92146 10.2338 9.83366 10.4457 9.83366 10.6667V16.5001C9.83366 16.7211 9.92146 16.9331 10.0777 17.0893C10.234 17.2456 10.446 17.3334 10.667 17.3334H16.5003C16.7213 17.3334 16.9333 17.2456 17.0896 17.0893C17.2459 16.9331 17.3337 16.7211 17.3337 16.5001V10.6667C17.3337 10.4457 17.2459 10.2338 17.0896 10.0775C16.9333 9.92121 16.7213 9.83342 16.5003 9.83342ZM15.667 15.6667H11.5003V11.5001H15.667V15.6667ZM7.33366 0.666748H1.50033C1.27931 0.666748 1.06735 0.754545 0.91107 0.910826C0.75479 1.06711 0.666992 1.27907 0.666992 1.50008V7.33342C0.666992 7.55443 0.75479 7.76639 0.91107 7.92267C1.06735 8.07895 1.27931 8.16675 1.50033 8.16675H7.33366C7.55467 8.16675 7.76663 8.07895 7.92291 7.92267C8.0792 7.76639 8.16699 7.55443 8.16699 7.33342V1.50008C8.16699 1.27907 8.0792 1.06711 7.92291 0.910826C7.76663 0.754545 7.55467 0.666748 7.33366 0.666748ZM6.50033 6.50008H2.33366V2.33341H6.50033V6.50008Z" fill="#377AFF"/>
</svg>
