<svg width="16" height="16" viewBox="0 0 16 16" fill="none" xmlns="http://www.w3.org/2000/svg">
<path d="M14.417 7.08317H8.91699V1.58317C8.91699 1.34006 8.82041 1.1069 8.64851 0.93499C8.4766 0.763081 8.24344 0.666504 8.00032 0.666504C7.75721 0.666504 7.52405 0.763081 7.35214 0.93499C7.18024 1.1069 7.08366 1.34006 7.08366 1.58317V7.08317H1.58366C1.34054 7.08317 1.10739 7.17975 0.935478 7.35166C0.763569 7.52356 0.666992 7.75672 0.666992 7.99984C0.666992 8.24295 0.763569 8.47611 0.935478 8.64802C1.10739 8.81993 1.34054 8.9165 1.58366 8.9165H7.08366V14.4165C7.08366 14.6596 7.18024 14.8928 7.35214 15.0647C7.52405 15.2366 7.75721 15.3332 8.00032 15.3332C8.24344 15.3332 8.4766 15.2366 8.64851 15.0647C8.82041 14.8928 8.91699 14.6596 8.91699 14.4165V8.9165H14.417C14.6601 8.9165 14.8933 8.81993 15.0652 8.64802C15.2371 8.47611 15.3337 8.24295 15.3337 7.99984C15.3337 7.75672 15.2371 7.52356 15.0652 7.35166C14.8933 7.17975 14.6601 7.08317 14.417 7.08317Z" fill="white"/>
</svg>
