<svg width="18" height="18" viewBox="0 0 18 18" fill="none" xmlns="http://www.w3.org/2000/svg">
<mask id="mask0_635_2" style="mask-type:alpha" maskUnits="userSpaceOnUse" x="0" y="0" width="17" height="17">
<path fill-rule="evenodd" clip-rule="evenodd" d="M0.666992 0.666748H16.8977V16.8976H0.666992V0.666748Z" fill="white"/>
</mask>
<g mask="url(#mask0_635_2)">
<path fill-rule="evenodd" clip-rule="evenodd" d="M8.78283 1.91675C4.99699 1.91675 1.91699 4.99591 1.91699 8.78175C1.91699 12.5676 4.99699 15.6476 8.78283 15.6476C12.5678 15.6476 15.6478 12.5676 15.6478 8.78175C15.6478 4.99591 12.5678 1.91675 8.78283 1.91675ZM8.78283 16.8976C4.30783 16.8976 0.666992 13.2567 0.666992 8.78175C0.666992 4.30675 4.30783 0.666748 8.78283 0.666748C13.2578 0.666748 16.8978 4.30675 16.8978 8.78175C16.8978 13.2567 13.2578 16.8976 8.78283 16.8976Z" fill="#1E1C28"/>
</g>
<mask id="mask1_635_2" style="mask-type:alpha" maskUnits="userSpaceOnUse" x="13" y="13" width="5" height="5">
<path fill-rule="evenodd" clip-rule="evenodd" d="M13.3672 13.7559H17.5539V17.9348H13.3672V13.7559Z" fill="white"/>
</mask>
<g mask="url(#mask1_635_2)">
<path fill-rule="evenodd" clip-rule="evenodd" d="M16.9291 17.9348C16.7699 17.9348 16.6099 17.874 16.4874 17.7523L13.5507 14.824C13.3066 14.5798 13.3057 14.184 13.5499 13.9398C13.7932 13.694 14.1891 13.6957 14.4341 13.9382L17.3707 16.8673C17.6149 17.1115 17.6157 17.5065 17.3716 17.7507C17.2499 17.874 17.0891 17.9348 16.9291 17.9348Z" fill="#1E1C28"/>
</g>
</svg>
