<svg width="20" height="19" viewBox="0 0 20 19" fill="none" xmlns="http://www.w3.org/2000/svg">
<g clip-path="url(#clip0_149_4405)">
<path d="M6.20246 18.3207C7.0413 18.3207 7.72132 17.6703 7.72132 16.8679C7.72132 16.0655 7.0413 15.415 6.20246 15.415C5.36361 15.415 4.68359 16.0655 4.68359 16.8679C4.68359 17.6703 5.36361 18.3207 6.20246 18.3207Z" fill="#1E1E1E" fill-opacity="0.7"/>
<path d="M13.7972 18.3207C14.636 18.3207 15.316 17.6703 15.316 16.8679C15.316 16.0655 14.636 15.415 13.7972 15.415C12.9583 15.415 12.2783 16.0655 12.2783 16.8679C12.2783 17.6703 12.9583 18.3207 13.7972 18.3207Z" fill="#1E1E1E" fill-opacity="0.7"/>
<path d="M18.3415 5.25829C17.807 4.76933 17.0913 4.50336 16.3518 4.51879H5.18056L4.98083 3.02093C4.9083 2.43303 4.61279 1.89103 4.15031 1.49766C3.68783 1.10429 3.09054 0.886909 2.47166 0.886719L2.02587 0.886719C1.72375 0.886719 1.434 1.00152 1.22037 1.20586C1.00674 1.41021 0.886719 1.68736 0.886719 1.97634H0.886719C0.886719 2.26533 1.00674 2.54248 1.22037 2.74682C1.434 2.95116 1.72375 3.06596 2.02587 3.06596H2.47166C2.53378 3.0666 2.59346 3.08922 2.63918 3.12947C2.6849 3.16971 2.71342 3.22472 2.71923 3.28389L3.85838 11.8258C3.93023 12.4142 4.22547 12.9568 4.68804 13.3506C5.15061 13.7445 5.74828 13.9621 6.36755 13.9622H14.0545C14.969 13.9617 15.8579 13.6742 16.585 13.1438C17.3121 12.6134 17.8371 11.8694 18.0795 11.026L19.0258 7.73463C19.1519 7.30093 19.155 6.84292 19.0348 6.40769C18.9145 5.97247 18.6752 5.57573 18.3415 5.25829ZM15.8855 10.4485C15.7743 10.8316 15.5352 11.1693 15.2046 11.4102C14.8741 11.6512 14.4702 11.7821 14.0545 11.7829H6.36755C6.30546 11.7825 6.24578 11.7599 6.20015 11.7196C6.15452 11.6793 6.12621 11.6242 6.12074 11.565L5.47142 6.69804H16.4657C16.5244 6.69762 16.5824 6.7102 16.6351 6.7348C16.6878 6.7594 16.7338 6.79535 16.7696 6.83983C16.8054 6.88431 16.8299 6.9361 16.8412 6.99115C16.8525 7.04621 16.8503 7.10302 16.8348 7.15713L15.8855 10.4485Z" fill="#1E1E1E" fill-opacity="0.7"/>
</g>
<defs>
<clipPath id="clip0_149_4405">
<rect width="18.2264" height="17.434" fill="white" transform="translate(0.886719 0.886719)"/>
</clipPath>
</defs>
</svg>
