<svg width="19" height="19" viewBox="0 0 19 19" fill="none" xmlns="http://www.w3.org/2000/svg">
<g clip-path="url(#clip0_149_4411)">
<path d="M18.1139 9.05585C18.0086 7.35631 17.4082 5.72474 16.3869 4.36226C15.3655 2.99978 13.9678 1.96594 12.366 1.38818C10.7642 0.810425 9.02838 0.714006 7.37246 1.11081C5.71654 1.50761 4.21292 2.3803 3.04695 3.62128C1.88098 4.86227 1.10363 6.41732 0.810724 8.09473C0.517813 9.77215 0.722144 11.4986 1.39853 13.0613C2.07492 14.624 3.19379 15.9546 4.61724 16.8892C6.04068 17.8237 7.70647 18.3213 9.40927 18.3206H14.1186C15.1778 18.3192 16.1933 17.8978 16.9422 17.1489C17.6912 16.3999 18.1126 15.3845 18.1139 14.3253V9.12414V9.05585ZM15.9347 14.3253C15.9347 14.8069 15.7433 15.2688 15.4028 15.6094C15.0622 15.95 14.6003 16.1413 14.1186 16.1413H9.40927C8.48634 16.1408 7.57388 15.9457 6.7314 15.5688C5.88892 15.1919 5.13533 14.6417 4.51977 13.9541C3.90148 13.2669 3.43727 12.4555 3.15826 11.5742C2.87925 10.693 2.79189 9.76225 2.90204 8.84447C3.07585 7.39758 3.7261 6.04964 4.75036 5.01301C5.77462 3.97639 7.11467 3.31001 8.55936 3.11886C8.84202 3.08359 9.1266 3.06588 9.41145 3.06583C10.9341 3.06147 12.4098 3.59272 13.5803 4.56661C14.2627 5.13344 14.8231 5.83268 15.2278 6.62211C15.6324 7.41154 15.8729 8.27479 15.9347 9.15973V14.3253Z" fill="#1E1E1E" fill-opacity="0.7"/>
<path d="M7.58083 8.87749H9.76008C10.0491 8.87749 10.3262 8.76269 10.5306 8.55834C10.7349 8.354 10.8497 8.07685 10.8497 7.78786C10.8497 7.49888 10.7349 7.22173 10.5306 7.01739C10.3262 6.81304 10.0491 6.69824 9.76008 6.69824H7.58083C7.29185 6.69824 7.0147 6.81304 6.81035 7.01739C6.60601 7.22173 6.49121 7.49888 6.49121 7.78786C6.49121 8.07685 6.60601 8.354 6.81035 8.55834C7.0147 8.76269 7.29185 8.87749 7.58083 8.87749Z" fill="#1E1E1E" fill-opacity="0.7"/>
<path d="M12.6657 10.3301H7.58083C7.29185 10.3301 7.0147 10.4449 6.81035 10.6492C6.60601 10.8536 6.49121 11.1307 6.49121 11.4197C6.49121 11.7087 6.60601 11.9858 6.81035 12.1902C7.0147 12.3945 7.29185 12.5093 7.58083 12.5093H12.6657C12.9547 12.5093 13.2319 12.3945 13.4362 12.1902C13.6406 11.9858 13.7554 11.7087 13.7554 11.4197C13.7554 11.1307 13.6406 10.8536 13.4362 10.6492C13.2319 10.4449 12.9547 10.3301 12.6657 10.3301Z" fill="#1E1E1E" fill-opacity="0.7"/>
</g>
<defs>
<clipPath id="clip0_149_4411">
<rect width="17.434" height="17.434" fill="white" transform="translate(0.679688 0.886719)"/>
</clipPath>
</defs>
</svg>
