<svg width="19" height="19" viewBox="0 0 19 19" fill="none" xmlns="http://www.w3.org/2000/svg">
<g clip-path="url(#clip0_149_4420)">
<path d="M0.840056 3.99812C0.765524 3.87593 0.715795 3.74025 0.693712 3.59884C0.671628 3.45742 0.677622 3.31304 0.711351 3.17395C0.74508 3.03485 0.805883 2.90376 0.890287 2.78816C0.974691 2.67257 1.08104 2.57474 1.20326 2.50025L3.57719 1.04742C3.69927 0.966133 3.8365 0.910325 3.98066 0.883343C4.12483 0.856362 4.27295 0.858762 4.41616 0.8904C4.55938 0.922037 4.69473 0.982262 4.81411 1.06746C4.93349 1.15267 5.03444 1.26109 5.11091 1.38624C5.18738 1.5114 5.2378 1.6507 5.25914 1.7958C5.28049 1.94091 5.27232 2.08883 5.23512 2.2307C5.19793 2.37257 5.13247 2.50547 5.04268 2.62144C4.95289 2.73741 4.84062 2.83406 4.71258 2.9056L2.33793 4.35843C2.21573 4.43296 2.08005 4.48269 1.93864 4.50477C1.79722 4.52685 1.65284 4.52086 1.51375 4.48713C1.37465 4.4534 1.24356 4.3926 1.12796 4.3082C1.01237 4.22379 0.914538 4.11744 0.840056 3.99522V3.99812ZM17.5963 13.95C17.3504 13.7983 17.0542 13.7505 16.7731 13.8172C16.4919 13.8838 16.2487 14.0593 16.097 14.3052L14.6441 16.6596C14.5656 16.7813 14.5121 16.9175 14.4868 17.0602C14.4615 17.2029 14.465 17.3492 14.4969 17.4905C14.5288 17.6319 14.5887 17.7654 14.6729 17.8834C14.757 18.0013 14.8639 18.1013 14.9872 18.1774C15.1105 18.2535 15.2477 18.3043 15.3909 18.3268C15.534 18.3492 15.6802 18.3429 15.8209 18.3082C15.9616 18.2734 16.0939 18.211 16.2102 18.1245C16.3264 18.038 16.4243 17.9292 16.4979 17.8044L17.9508 15.4501C18.0261 15.3283 18.0768 15.1928 18.0997 15.0515C18.1227 14.9101 18.1176 14.7656 18.0847 14.6262C18.0517 14.4868 17.9917 14.3553 17.9079 14.2391C17.8241 14.123 17.7182 14.0245 17.5963 13.9493V13.95ZM15.8144 12.134L13.1993 16.3944C12.8813 16.9154 12.4487 17.357 11.9343 17.6856C11.42 18.0143 10.8375 18.2214 10.2312 18.2911C10.0713 18.3095 9.91049 18.319 9.74955 18.3194C8.85667 18.3159 7.99073 18.0133 7.2899 17.4601C6.71984 18.0128 5.95607 18.3204 5.16207 18.3171C4.36806 18.3137 3.6069 17.9998 3.04147 17.4423C2.47605 16.8849 2.15129 16.1282 2.13669 15.3343C2.12209 14.5405 2.41882 13.7724 2.96337 13.1946L1.8781 12.1049C1.44375 11.6742 1.11332 11.15 0.911925 10.5724C0.710528 9.99479 0.643467 9.37884 0.715839 8.7714C0.784702 8.17001 0.989737 7.59222 1.31537 7.08193C1.64099 6.57165 2.07865 6.1423 2.59508 5.82651L6.58092 3.36614C7.68038 2.66264 8.96556 2.30507 10.2704 2.33964C11.5752 2.37422 12.8396 2.79935 13.9003 3.5601L14.801 2.65861C15.0055 2.4542 15.2827 2.33937 15.5718 2.33937C15.8608 2.33937 16.1381 2.4542 16.3425 2.65861C16.5469 2.86302 16.6617 3.14026 16.6617 3.42934C16.6617 3.71842 16.5469 3.99566 16.3425 4.20007L15.4425 5.1001C16.1654 6.11686 16.5843 7.31828 16.6501 8.56412C16.716 9.80997 16.4261 11.0488 15.8144 12.1362V12.134ZM13.1993 5.80908C12.4945 5.09995 11.5679 4.65381 10.574 4.54502C9.58008 4.43623 8.57892 4.67137 7.73737 5.21124L3.74209 7.68105C3.5064 7.82563 3.30673 8.02197 3.15821 8.25519C3.0097 8.48841 2.91624 8.75239 2.88492 9.0271C2.85173 9.30789 2.88302 9.59254 2.97643 9.8594C3.06983 10.1263 3.22287 10.3683 3.42392 10.5671L8.4449 15.5997C8.64391 15.7978 8.88515 15.9484 9.15057 16.0401C9.41599 16.1317 9.69872 16.1622 9.97757 16.1291C10.2564 16.0961 10.5242 16.0004 10.7608 15.8492C10.9975 15.698 11.1968 15.4953 11.344 15.2561L13.9395 11.0298C14.3999 10.1977 14.5768 9.23833 14.4434 8.29675C14.31 7.35517 13.8735 6.48267 13.2 5.81126L13.1993 5.80908Z" fill="#1E1E1E" fill-opacity="0.7"/>
</g>
<defs>
<clipPath id="clip0_149_4420">
<rect width="17.434" height="17.434" fill="white" transform="translate(0.679688 0.886719)"/>
</clipPath>
</defs>
</svg>
